<svg
  width="200mm"
  height="200mm"
  viewBox="0 0 200 200"
  xmlns="http://www.w3.org/2000/svg">
  <g style="fill:currentColor;stroke:currentColor;stroke-width:0"
    transform="matrix(0.18909813,0,0,0.18909813,7.608862,0.55900816)">
    <path
      d="M 490.07815,50.494878 82.400338,186.38748 V 594.0653 c 0,225.17829 182.499522,407.6778 407.677812,407.6778 225.17829,0 407.67781,-182.49951 407.67781,-407.6778 V 186.38748 Z M 821.31637,594.0653 c 0,182.92418 -148.31404,331.23822 -331.23822,331.23822 -182.92418,0 -331.23822,-148.31404 -331.23822,-331.23822 V 243.71718 L 490.07815,126.93447 821.31637,243.71718 Z"
      style="stroke-width:0" />
    <g
      style="fill:none;stroke:currentColor;stroke-width:2;stroke-linecap:round;stroke-linejoin:round"
      transform="matrix(27.128449,0,0,27.128449,163.09196,250.87176)">
      <path d="m 16,3 h 5 v 5" />
      <path d="M 8,3 H 3 v 5" />
      <path d="M 12,22 V 13.7 A 4,4 0 0 0 10.828,10.828 L 3,3" />
      <path d="M 15,9 21,3" />
    </g>
  </g>
</svg>
